<mxfile host="app.diagrams.net" modified="2024-01-24T16:43:28.744Z" agent="Mozilla/5.0 (Windows NT 10.0; Win64; x64) AppleWebKit/537.36 (KHTML, like Gecko) Chrome/120.0.0.0 Safari/537.36 OPR/106.0.0.0" etag="gL-tx9lNON3LDbVLsUyN" version="23.0.1" type="github">
  <diagram name="Page-1" id="goIuTkssjz_kds5zfLVA">
    <mxGraphModel dx="1432" dy="775" grid="1" gridSize="10" guides="1" tooltips="1" connect="1" arrows="1" fold="1" page="1" pageScale="1" pageWidth="850" pageHeight="1100" math="0" shadow="0">
      <root>
        <mxCell id="0" />
        <mxCell id="1" parent="0" />
        <mxCell id="n17zaNqbePmeqc6DUiR3-1" value="" style="ellipse;shape=cloud;whiteSpace=wrap;html=1;" vertex="1" parent="1">
          <mxGeometry x="360" y="140" width="120" height="80" as="geometry" />
        </mxCell>
        <mxCell id="n17zaNqbePmeqc6DUiR3-2" value="" style="image;html=1;image=img/lib/clip_art/networking/Switch_128x128.png" vertex="1" parent="1">
          <mxGeometry x="385" y="390" width="80" height="80" as="geometry" />
        </mxCell>
        <mxCell id="n17zaNqbePmeqc6DUiR3-5" value="" style="endArrow=classic;startArrow=classic;html=1;rounded=0;entryX=0.55;entryY=0.95;entryDx=0;entryDy=0;entryPerimeter=0;" edge="1" parent="1" target="n17zaNqbePmeqc6DUiR3-1">
          <mxGeometry width="50" height="50" relative="1" as="geometry">
            <mxPoint x="426" y="400" as="sourcePoint" />
            <mxPoint x="450" y="370" as="targetPoint" />
            <Array as="points">
              <mxPoint x="426" y="350" />
              <mxPoint x="426" y="300" />
              <mxPoint x="426" y="270" />
            </Array>
          </mxGeometry>
        </mxCell>
        <mxCell id="n17zaNqbePmeqc6DUiR3-6" value="WAN Cloud" style="text;html=1;strokeColor=none;fillColor=none;align=center;verticalAlign=middle;whiteSpace=wrap;rounded=0;" vertex="1" parent="1">
          <mxGeometry x="380" y="167.5" width="85" height="25" as="geometry" />
        </mxCell>
        <mxCell id="n17zaNqbePmeqc6DUiR3-7" value="WAN Switch" style="text;html=1;strokeColor=none;fillColor=none;align=center;verticalAlign=middle;whiteSpace=wrap;rounded=0;" vertex="1" parent="1">
          <mxGeometry x="368" y="450" width="115" height="30" as="geometry" />
        </mxCell>
      </root>
    </mxGraphModel>
  </diagram>
</mxfile>
